<svg id="Capa_1" enable-background="new 0 0 512 512" height="512" viewBox="0 0 512 512" width="512" xmlns="http://www.w3.org/2000/svg"><g><g><path d="m292.197 159.536h-292.197v1.399c5.76 21.439 19.768 40.363 39.085 52.111l216.915 131.927 139.24-84.685c-52.015-8.531-93.373-49.124-103.043-100.752z"/><path d="m473.508 247.799-110.855 67.421 149.347 136.69v-232.061c-6.972 7.236-33.589 25.393-38.492 27.95z"/><path d="m23.496 238.678c-8.559-5.205-16.566-11.49-23.496-18.653v231.885l149.346-136.691z"/><path d="m256 380.085-79.959-48.63-153.806 140.773h467.53l-153.806-140.773z"/></g><g><path d="m415.41 39.772c-53.26 0-96.59 43.33-96.59 96.59s43.331 96.59 96.59 96.59c53.26 0 96.59-43.331 96.59-96.59s-43.33-96.59-96.59-96.59zm43.26 111.585h-28.266v28.266h-29.99v-28.266h-28.265v-29.99h28.265v-28.265h29.99v28.266h28.266z"/></g></g></svg>